HIERARCHY
ROOT mixamorig:Hips
{
	OFFSET 0.00 0.00 0.00
	CHANNELS 6 Xposition Yposition Zposition Zrotation Yrotation Xrotation
	JOINT mixamorig:Spine
	{
		OFFSET	0.0000	5.4617	-0.3112
		CHANNELS 3 Zrotation Yrotation Xrotation
		JOINT mixamorig:Spine1
		{
			OFFSET	0.0000	6.3720	-0.3631
			CHANNELS 3 Zrotation Yrotation Xrotation
			JOINT mixamorig:Spine2
			{
				OFFSET	0.0000	7.2823	-0.4150
				CHANNELS 3 Zrotation Yrotation Xrotation
				JOINT mixamorig:Neck
				{
					OFFSET	0.0000	8.1925	-0.4669
					CHANNELS 3 Zrotation Yrotation Xrotation
					JOINT mixamorig:Head
					{
						OFFSET	0.0000	3.2833	1.4592
						CHANNELS 3 Zrotation Yrotation Xrotation
						End Site
						{
							OFFSET 0.0000 8.9613 3.9825
						}
					}
				}
				JOINT mixamorig:LeftShoulder
				{
					OFFSET	3.1626	7.0906	-0.4769
					CHANNELS 3 Zrotation Yrotation Xrotation
					JOINT mixamorig:LeftArm
					{
						OFFSET	6.5498	-2.2589	-0.0201
						CHANNELS 3 Zrotation Yrotation Xrotation
						JOINT mixamorig:LeftForeArm
						{
							OFFSET	8.3648	-10.4673	0.1269
							CHANNELS 3 Zrotation Yrotation Xrotation
							JOINT mixamorig:LeftHand
							{
								OFFSET	7.0063	-8.8178	-0.0855
								CHANNELS 3 Zrotation Yrotation Xrotation
								JOINT mixamorig:LeftHandIndex1
								{
									OFFSET	3.3821	-4.7763	-0.1200
									CHANNELS 3 Zrotation Yrotation Xrotation
									JOINT mixamorig:LeftHandIndex2
									{
										OFFSET	0.2668	-1.0637	-0.1708
										CHANNELS 3 Zrotation Yrotation Xrotation
										JOINT mixamorig:LeftHandIndex3
										{
											OFFSET	-0.1405	-1.7260	-0.3477
											CHANNELS 3 Zrotation Yrotation Xrotation
											End Site
											{
												OFFSET -0.1693 -1.6426 -0.2357
											}
										}
									}
								}
							}
						}
					}
				}
				JOINT mixamorig:RightShoulder
				{
					OFFSET	-3.1626	7.0906	-0.4567
					CHANNELS 3 Zrotation Yrotation Xrotation
					JOINT mixamorig:RightArm
					{
						OFFSET	-6.5498	-2.2589	0.0201
						CHANNELS 3 Zrotation Yrotation Xrotation
						JOINT mixamorig:RightForeArm
						{
							OFFSET	-8.3649	-10.4674	0.0832
							CHANNELS 3 Zrotation Yrotation Xrotation
							JOINT mixamorig:RightHand
							{
								OFFSET	-7.0063	-8.8178	-0.0448
								CHANNELS 3 Zrotation Yrotation Xrotation
								JOINT mixamorig:RightHandIndex1
								{
									OFFSET	-2.5529	-5.4914	-0.3827
									CHANNELS 3 Zrotation Yrotation Xrotation
									JOINT mixamorig:RightHandIndex2
									{
										OFFSET	-0.9385	-0.6041	-0.0836
										CHANNELS 3 Zrotation Yrotation Xrotation
										JOINT mixamorig:RightHandIndex3
										{
											OFFSET	-0.1181	-1.6135	-0.2676
											CHANNELS 3 Zrotation Yrotation Xrotation
											End Site
											{
												OFFSET 0.1057 -1.5029 -0.1693
											}
										}
									}
								}
							}
						}
					}
				}
			}
		}
	}
	JOINT mixamorig:LeftUpLeg
	{
		OFFSET	4.7020	-3.0373	0.2971
		CHANNELS 3 Zrotation Yrotation Xrotation
		JOINT mixamorig:LeftLeg
		{
			OFFSET	1.4174	-24.5547	-0.0425
			CHANNELS 3 Zrotation Yrotation Xrotation
			JOINT mixamorig:LeftFoot
			{
				OFFSET	2.4192	-23.6600	-0.3483
				CHANNELS 3 Zrotation Yrotation Xrotation
				JOINT mixamorig:LeftToeBase
				{
					OFFSET	0.1755	-3.6209	5.9487
					CHANNELS 3 Zrotation Yrotation Xrotation
					End Site
					{
						OFFSET 0.0345 0.0250 2.8160
					}
				}
			}
		}
	}
	JOINT mixamorig:RightUpLeg
	{
		OFFSET	-4.7020	-3.0373	0.1877
		CHANNELS 3 Zrotation Yrotation Xrotation
		JOINT mixamorig:RightLeg
		{
			OFFSET	-1.4174	-24.5548	0.0851
			CHANNELS 3 Zrotation Yrotation Xrotation
			JOINT mixamorig:RightFoot
			{
				OFFSET	-2.4193	-23.6600	-0.2872
				CHANNELS 3 Zrotation Yrotation Xrotation
				JOINT mixamorig:RightToeBase
				{
					OFFSET	-0.1755	-3.6209	5.7987
					CHANNELS 3 Zrotation Yrotation Xrotation
					End Site
					{
						OFFSET -0.0345 0.0250 2.8115
					}
				}
			}
		}
	}
}
MOTION
Frames: 7
Frame Time: 0.0166667
-0.0297 52.1156 -0.1009 -0.0449 8.7070 7.6002 -2.5387 1.7346 13.4524 0.0601 0.4794 0.8108 0.0591 0.4818 0.8093 2.3924 -1.0998 -2.8723 0.7474 -7.4047 -19.7369 -6.9720 -6.3349 1.1663 -21.5162 -0.5000 -13.2684 3.1026 -46.2645 12.3541 33.3738 4.6765 -0.7033 -22.7860 0.8354 -5.4056 -25.0152 4.0809 -1.9218 -41.9707 7.6977 1.3414 7.8750 9.6434 1.9430 29.2538 46.6129 31.2694 -7.2588 -14.7092 -32.2219 -44.2409 -1.3291 -15.3117 75.5433 -4.1081 -6.1530 -8.8300 2.1401 -1.6574 35.3411 -5.2509 0.5289 14.7888 1.6511 -14.6004 8.1938 4.4008 15.5911 -18.7980 0.1466 -4.6996 -2.2832 1.5713 -0.9064 -14.9333 -1.1393 -13.4586 -6.6789 2.6108 15.7671 14.4543 0.5846 -8.8946 3.7795 -2.2665 -0.7484 
-0.1169 51.9789 0.0771 -0.2127 9.0666 7.3759 -2.5623 1.8424 13.1646 0.0838 0.5098 0.7738 0.0828 0.5119 0.7721 2.3917 -1.1174 -3.0394 1.0010 -7.5935 -19.9718 -7.0384 -6.1258 1.1421 -21.5735 -0.4224 -12.8736 3.8023 -47.6831 12.6737 30.8367 4.5942 -2.2688 -20.8934 0.6693 -5.1692 -25.6995 4.1930 -1.9527 -42.6595 7.8100 1.2633 8.2398 9.5674 1.9339 28.1212 46.6675 30.4942 1.6286 -20.0647 -36.8743 -41.4547 -1.4862 -15.0776 73.6418 -4.2124 -5.8004 -8.1440 2.0475 -1.6445 36.0307 -5.3351 0.4531 14.7771 0.8320 -14.9117 9.2728 4.7088 16.8079 -19.5772 -0.1528 -5.2695 -2.2994 1.6393 -0.8071 -14.2105 -0.1617 -13.7249 -8.0014 1.7623 17.5403 14.9616 0.9532 -10.0224 3.9529 -2.7278 -0.8794 
-0.1995 51.7109 0.2200 -0.3471 9.4205 7.1122 -2.5748 1.9325 13.0263 0.1097 0.5356 0.7483 0.1081 0.5374 0.7465 2.3803 -1.1272 -3.2549 1.1853 -7.7421 -20.3573 -7.1200 -5.9845 1.1282 -21.3221 -0.4823 -12.9619 4.2580 -49.2565 13.7222 27.1672 4.4313 -4.2062 -19.7993 0.4587 -5.4610 -26.2474 4.2825 -1.9785 -43.2113 7.8993 1.1998 8.9490 9.6049 1.9118 26.1120 46.5793 28.8456 11.1178 -25.0579 -41.8931 -42.2047 -1.4450 -15.1765 72.5341 -3.8954 -5.8297 -7.5949 1.9733 -1.6349 36.5829 -5.4018 0.3918 14.7269 -0.1100 -15.9940 10.5967 4.8470 19.6210 -20.5188 -0.6270 -6.5614 -2.3626 1.7743 -0.7342 -13.5288 0.8904 -14.5995 -9.4315 1.1141 20.6192 15.6024 1.4634 -11.7866 4.1615 -3.3417 -1.0481 
-0.2718 51.3251 0.3302 -0.4258 9.8003 6.8012 -2.5577 1.9638 13.0271 0.1330 0.5450 0.7321 0.1307 0.5467 0.7303 2.3540 -1.1290 -3.5107 1.2498 -7.8685 -20.8416 -7.1277 -5.9754 1.1309 -20.7370 -0.6620 -13.5743 4.2681 -50.8040 15.5620 22.7276 4.0374 -6.6256 -18.7323 0.1893 -5.9779 -26.4325 4.3127 -1.9874 -43.3977 7.9293 1.1782 9.9590 9.7438 1.8858 23.4504 46.4716 26.4294 20.0735 -29.0942 -46.8892 -46.5814 -1.3797 -15.9864 71.4505 -3.3800 -5.9834 -7.4094 1.9481 -1.6318 36.7695 -5.4242 0.3709 14.5614 -1.1679 -17.4445 12.1789 4.6961 23.2182 -21.6362 -1.2108 -8.2125 -2.5384 2.0671 -0.7128 -12.7826 1.9194 -15.6780 -11.2334 0.7632 24.2318 16.5200 2.0742 -13.7916 4.3932 -4.0217 -1.2431 
-0.3336 50.8441 0.4140 -0.4411 10.2248 6.4416 -2.4906 1.9005 13.1375 0.1489 0.5282 0.7226 0.1462 0.5302 0.7209 2.3210 -1.1258 -3.7891 1.1676 -8.0017 -21.3680 -6.9159 -6.1021 1.1473 -19.8378 -0.8863 -14.6213 5.9715 -50.4588 11.7554 22.1876 3.9144 -8.9167 -17.0951 -0.0639 -6.2050 -26.0373 4.2482 -1.9685 -42.9997 7.8651 1.2242 11.1354 9.9024 1.8582 20.1330 46.6394 23.0362 27.7818 -32.1876 -51.3802 -53.2986 -1.5199 -17.4203 69.8008 -3.0912 -5.9148 -7.8054 2.0017 -1.6385 36.3712 -5.3763 0.4154 14.1787 -2.3182 -18.9143 14.0729 4.1288 26.8928 -22.9770 -1.8462 -9.9250 -2.8483 2.5458 -0.7555 -11.8612 2.8502 -16.6608 -13.5725 0.8015 27.7985 17.8008 2.7607 -15.7589 4.6590 -4.7177 -1.4686 
-0.3789 50.3170 0.4824 -0.3892 10.6789 6.0374 -2.3770 1.7290 13.3082 0.1529 0.4819 0.7179 0.1508 0.4848 0.7162 2.2955 -1.1223 -4.0619 0.9500 -8.1706 -21.8978 -6.3303 -6.2945 1.1630 -18.6492 -0.9755 -15.8318 7.7915 -49.5469 6.7779 22.4523 3.8486 -11.2995 -14.5707 -0.5942 -7.0709 -25.2704 4.1228 -1.9332 -42.2276 7.7397 1.3124 12.2848 9.9646 1.8247 16.0844 47.3105 18.3967 34.3222 -34.6176 -55.3559 -60.2428 -2.0422 -19.1697 67.2527 -2.1881 -6.0872 -8.5741 2.1056 -1.6525 35.5983 -5.2824 0.5007 13.6054 -3.4881 -20.1662 16.0468 3.1601 30.1889 -24.4127 -2.4843 -11.5365 -3.2636 3.1604 -0.8719 -10.8859 3.6398 -17.3891 -16.1199 1.1759 30.9839 19.2626 3.4773 -17.5425 4.9727 -5.4294 -1.7339 
-0.4001 49.8048 0.5545 -0.2802 11.1002 5.5829 -2.2396 1.4799 13.4736 0.1426 0.4149 0.7192 0.1420 0.4192 0.7176 2.2925 -1.1243 -4.2927 0.6600 -8.3977 -22.4097 -5.2866 -6.4456 1.1596 -17.1827 -0.7023 -16.8371 9.4498 -48.1429 0.9580 23.4243 3.8317 -13.7521 -9.9402 -1.9069 -9.9326 -23.9619 3.9076 -1.8767 -40.9107 7.5230 1.4589 13.2265 9.8401 1.7812 11.5172 48.4941 12.6003 40.5276 -36.3857 -59.4229 -65.9886 -3.2039 -21.4353 62.5766 0.5985 -7.0940 -9.8864 2.2824 -1.6795 34.2798 -5.1196 0.6434 12.9521 -4.5438 -21.0653 17.7575 1.9512 32.9161 -25.7239 -3.0836 -13.0013 -3.7162 3.8074 -1.0520 -10.0587 4.3007 -17.8177 -18.3759 1.7244 33.6795 20.6156 4.1641 -19.1250 5.3113 -6.1820 -2.0286 
